HIERARCHY
ROOT Hips
{
	OFFSET 0.000000 97.167313 0.000000
	CHANNELS 6 Xposition Yposition Zposition Xrotation Yrotation Zrotation
	JOINT Spine
	{
		OFFSET 0.000000 13.784798 0.064400
		CHANNELS 3 Xrotation Yrotation Zrotation
		JOINT Spine1
		{
			OFFSET 0.000000 12.037903 0.404700
			CHANNELS 3 Xrotation Yrotation Zrotation
			JOINT Spine2
			{
				OFFSET 0.000000 17.795601 0.420200
				CHANNELS 3 Xrotation Yrotation Zrotation
				JOINT Neck
				{
					OFFSET 0.000000 39.131302 11.954600
					CHANNELS 3 Xrotation Yrotation Zrotation
					JOINT Head
					{
						OFFSET 0.000000 14.456192 15.627699
						CHANNELS 3 Xrotation Yrotation Zrotation
						JOINT HeadTop_End
						{
							OFFSET 0.000000 15.703506 7.603401
							CHANNELS 3 Xrotation Yrotation Zrotation
							End Site
							{
								OFFSET 0.000000 17.447403 0.000000
							}
						}
					}
				}
				JOINT LeftShoulder
				{
					OFFSET 17.399500 24.608795 1.168800
					CHANNELS 3 Xrotation Yrotation Zrotation
					JOINT LeftArm
					{
						OFFSET 18.980635 5.765305 1.818600
						CHANNELS 3 Xrotation Yrotation Zrotation
						JOINT LeftForeArm
						{
							OFFSET 49.290169 0.000000 0.000000
							CHANNELS 3 Xrotation Yrotation Zrotation
							JOINT LeftHand
							{
								OFFSET 31.562012 0.000000 0.000000
								CHANNELS 3 Xrotation Yrotation Zrotation
								JOINT LeftHandThumb1
								{
									OFFSET 6.133995 -4.388519 7.076070
									CHANNELS 3 Xrotation Yrotation Zrotation
									JOINT LeftHandThumb2
									{
										OFFSET 6.037666 -3.485840 3.485847
										CHANNELS 3 Xrotation Yrotation Zrotation
										JOINT LeftHandThumb3
										{
											OFFSET 6.496506 -3.750763 3.750761
											CHANNELS 3 Xrotation Yrotation Zrotation
											JOINT LeftHandThumb4
											{
												OFFSET 5.616882 -3.242905 3.242910
												CHANNELS 3 Xrotation Yrotation Zrotation
												End Site
												{
													OFFSET -1.254608 7.132141 0.375429
												}
											}
										}
									}
								}
								JOINT LeftHandPinky1
								{
									OFFSET 18.920792 -0.453171 -11.426712
									CHANNELS 3 Xrotation Yrotation Zrotation
									JOINT LeftHandPinky2
									{
										OFFSET 4.919586 0.000000 0.000000
										CHANNELS 3 Xrotation Yrotation Zrotation
										JOINT LeftHandPinky3
										{
											OFFSET 5.233047 0.000000 0.000000
											CHANNELS 3 Xrotation Yrotation Zrotation
											JOINT LeftHandPinky4
											{
												OFFSET 5.571716 0.000000 0.000000
												CHANNELS 3 Xrotation Yrotation Zrotation
												End Site
												{
													OFFSET -3.459808 4.342407 -0.466164
												}
											}
										}
									}
								}
								JOINT LeftHandRing1
								{
									OFFSET 22.726120 -0.094986 -6.500475
									CHANNELS 3 Xrotation Yrotation Zrotation
									JOINT LeftHandRing2
									{
										OFFSET 6.408615 0.000000 0.000000
										CHANNELS 3 Xrotation Yrotation Zrotation
										JOINT LeftHandRing3
										{
											OFFSET 6.150223 0.000000 0.000000
											CHANNELS 3 Xrotation Yrotation Zrotation
											JOINT LeftHandRing4
											{
												OFFSET 6.145386 0.000000 0.000000
												CHANNELS 3 Xrotation Yrotation Zrotation
												End Site
												{
													OFFSET -3.671402 4.923981 -0.202372
												}
											}
										}
									}
								}
								JOINT LeftHandMiddle1
								{
									OFFSET 23.373947 0.000000 0.000001
									CHANNELS 3 Xrotation Yrotation Zrotation
									JOINT LeftHandMiddle2
									{
										OFFSET 6.996567 0.000000 0.000000
										CHANNELS 3 Xrotation Yrotation Zrotation
										JOINT LeftHandMiddle3
										{
											OFFSET 7.015945 0.000000 0.000000
											CHANNELS 3 Xrotation Yrotation Zrotation
											JOINT LeftHandMiddle4
											{
												OFFSET 7.721573 0.000000 0.000000
												CHANNELS 3 Xrotation Yrotation Zrotation
												End Site
												{
													OFFSET -4.651108 6.158463 0.251582
												}
											}
										}
									}
								}
								JOINT LeftHandIndex1
								{
									OFFSET 21.310577 -0.490082 6.209344
									CHANNELS 3 Xrotation Yrotation Zrotation
									JOINT LeftHandIndex2
									{
										OFFSET 7.536453 0.000000 0.000000
										CHANNELS 3 Xrotation Yrotation Zrotation
										JOINT LeftHandIndex3
										{
											OFFSET 7.512344 0.000000 0.000000
											CHANNELS 3 Xrotation Yrotation Zrotation
											JOINT LeftHandIndex4
											{
												OFFSET 10.212402 0.000000 0.000001
												CHANNELS 3 Xrotation Yrotation Zrotation
												End Site
												{
													OFFSET -5.180801 8.690506 1.388433
												}
											}
										}
									}
								}
							}
						}
					}
				}
				JOINT RightShoulder
				{
					OFFSET -17.399500 24.608795 1.168800
					CHANNELS 3 Xrotation Yrotation Zrotation
					JOINT RightArm
					{
						OFFSET -18.980635 5.765305 1.818600
						CHANNELS 3 Xrotation Yrotation Zrotation
						JOINT RightForeArm
						{
							OFFSET -49.290169 0.000000 0.000000
							CHANNELS 3 Xrotation Yrotation Zrotation
							JOINT RightHand
							{
								OFFSET -31.562012 0.000000 0.000000
								CHANNELS 3 Xrotation Yrotation Zrotation
								JOINT RightHandThumb1
								{
									OFFSET -6.133995 -4.388519 7.076070
									CHANNELS 3 Xrotation Yrotation Zrotation
									JOINT RightHandThumb2
									{
										OFFSET -6.037666 -3.485840 3.485847
										CHANNELS 3 Xrotation Yrotation Zrotation
										JOINT RightHandThumb3
										{
											OFFSET -6.496506 -3.750763 3.750761
											CHANNELS 3 Xrotation Yrotation Zrotation
											JOINT RightHandThumb4
											{
												OFFSET -5.616882 -3.242905 3.242910
												CHANNELS 3 Xrotation Yrotation Zrotation
												End Site
												{
													OFFSET 1.254608 7.132141 0.375429
												}
											}
										}
									}
								}
								JOINT RightHandIndex1
								{
									OFFSET -21.310577 -0.490082 6.209344
									CHANNELS 3 Xrotation Yrotation Zrotation
									JOINT RightHandIndex2
									{
										OFFSET -7.536453 0.000000 0.000000
										CHANNELS 3 Xrotation Yrotation Zrotation
										JOINT RightHandIndex3
										{
											OFFSET -7.512344 0.000000 0.000000
											CHANNELS 3 Xrotation Yrotation Zrotation
											JOINT RightHandIndex4
											{
												OFFSET -10.212402 0.000000 0.000001
												CHANNELS 3 Xrotation Yrotation Zrotation
												End Site
												{
													OFFSET 5.180801 8.690506 1.388433
												}
											}
										}
									}
								}
								JOINT RightHandMiddle1
								{
									OFFSET -23.373947 0.000000 0.000001
									CHANNELS 3 Xrotation Yrotation Zrotation
									JOINT RightHandMiddle2
									{
										OFFSET -6.996567 0.000000 0.000000
										CHANNELS 3 Xrotation Yrotation Zrotation
										JOINT RightHandMiddle3
										{
											OFFSET -7.015945 0.000000 0.000000
											CHANNELS 3 Xrotation Yrotation Zrotation
											JOINT RightHandMiddle4
											{
												OFFSET -7.721573 0.000000 0.000000
												CHANNELS 3 Xrotation Yrotation Zrotation
												End Site
												{
													OFFSET 4.651108 6.158463 0.251582
												}
											}
										}
									}
								}
								JOINT RightHandRing1
								{
									OFFSET -22.726120 -0.094986 -6.500475
									CHANNELS 3 Xrotation Yrotation Zrotation
									JOINT RightHandRing2
									{
										OFFSET -6.408615 0.000000 0.000000
										CHANNELS 3 Xrotation Yrotation Zrotation
										JOINT RightHandRing3
										{
											OFFSET -6.150223 0.000000 0.000000
											CHANNELS 3 Xrotation Yrotation Zrotation
											JOINT RightHandRing4
											{
												OFFSET -6.145386 0.000000 0.000000
												CHANNELS 3 Xrotation Yrotation Zrotation
												End Site
												{
													OFFSET 3.671402 4.923981 -0.202372
												}
											}
										}
									}
								}
								JOINT RightHandPinky1
								{
									OFFSET -18.920792 -0.453171 -11.426712
									CHANNELS 3 Xrotation Yrotation Zrotation
									JOINT RightHandPinky2
									{
										OFFSET -4.919586 0.000000 0.000000
										CHANNELS 3 Xrotation Yrotation Zrotation
										JOINT RightHandPinky3
										{
											OFFSET -5.233047 0.000000 0.000000
											CHANNELS 3 Xrotation Yrotation Zrotation
											JOINT RightHandPinky4
											{
												OFFSET -5.571716 0.000000 0.000000
												CHANNELS 3 Xrotation Yrotation Zrotation
												End Site
												{
													OFFSET 3.459808 4.342407 -0.466164
												}
											}
										}
									}
								}
							}
						}
					}
				}
			}
		}
	}
	JOINT LeftUpLeg
	{
		OFFSET 19.899099 -7.885101 -3.429500
		CHANNELS 3 Xrotation Yrotation Zrotation
		JOINT LeftLeg
		{
			OFFSET 1.745560 -36.997807 10.304700
			CHANNELS 3 Xrotation Yrotation Zrotation
			JOINT LeftFoot
			{
				OFFSET -1.745558 -29.803308 -13.615400
				CHANNELS 3 Xrotation Yrotation Zrotation
				JOINT LeftToeBase
				{
					OFFSET 1.181900 -18.539904 15.226099
					CHANNELS 3 Xrotation Yrotation Zrotation
					JOINT LeftToe_End
					{
						OFFSET -0.863701 1.402801 16.534700
						CHANNELS 3 Xrotation Yrotation Zrotation
						End Site
						{
							OFFSET 0.000000 16.616566 0.000000
						}
					}
				}
			}
		}
	}
	JOINT RightUpLeg
	{
		OFFSET -19.899099 -7.885101 -3.429500
		CHANNELS 3 Xrotation Yrotation Zrotation
		JOINT RightLeg
		{
			OFFSET -1.745560 -36.997807 10.304700
			CHANNELS 3 Xrotation Yrotation Zrotation
			JOINT RightFoot
			{
				OFFSET 1.745558 -29.803308 -13.615400
				CHANNELS 3 Xrotation Yrotation Zrotation
				JOINT RightToeBase
				{
					OFFSET -1.181900 -18.539904 15.226099
					CHANNELS 3 Xrotation Yrotation Zrotation
					JOINT RightToe_End
					{
						OFFSET 0.863701 1.402801 16.534700
						CHANNELS 3 Xrotation Yrotation Zrotation
						End Site
						{
							OFFSET 0.000000 16.616566 0.000000
						}
					}
				}
			}
		}
	}
}
MOTION
Frames: 6
Frame Time: 0.033333
1.951512 61.498238 1.494034 16.119866 -6.000999 -5.264393 11.293083 16.612028 -10.343688 2.869500 4.087945 -0.126408 2.861634 4.312294 -0.311448 -0.688866 -2.356465 4.369683 -6.951127 -9.321998 11.106345 0.000002 0.000000 -0.000000 1.124707 -1.331175 -15.116529 -9.590813 31.513226 -40.008417 -0.000006 -10.721327 0.000024 15.668215 -19.583462 20.990286 -5.811990 -6.522440 2.985080 8.092351 27.603236 1.096734 -10.020004 -14.017841 7.739291 0.000002 -0.000001 -0.000001 0.229223 4.355110 -33.121179 0.780408 2.923321 -29.888645 0.780022 2.922633 -29.880869 0.000000 0.000002 -0.000002 0.028223 3.645185 -26.113053 0.502172 2.375016 -23.874325 0.587686 2.559331 -25.860532 -0.000001 -0.000001 0.000003 -1.264327 -0.680473 -18.650043 0.387942 2.098231 -20.947879 0.466474 2.292720 -22.997802 0.000004 0.000000 0.000004 -1.864609 -6.065455 -12.589052 0.237191 1.651686 -16.342775 0.250127 1.695203 -16.786206 -0.000003 0.000003 0.000001 2.870333 11.957089 -6.152305 -33.803679 70.877611 6.927832 -0.000137 94.709575 0.000183 17.111794 20.467022 -11.105433 -15.299431 26.937112 3.983088 9.846921 -45.621685 -5.486192 -7.049034 3.102071 -14.196364 0.000002 0.000001 0.000002 0.542664 -4.795342 13.846566 0.169904 -1.247746 15.507861 0.169810 -1.247363 15.503213 -0.000001 0.000000 -0.000001 1.576768 -6.016276 32.822273 0.816453 -2.636003 34.413638 0.910234 -2.767790 36.402835 -0.000001 0.000001 -0.000002 2.347856 -6.542681 43.827398 1.218028 -3.142187 42.367858 1.329189 -3.259698 44.358479 0.000003 0.000003 -0.000005 2.816440 -7.345652 54.064584 1.765792 -3.652459 51.591486 1.765219 -3.652022 51.582658 -0.000000 0.000000 0.000001 -93.506922 -2.367847 2.701399 44.024760 11.756967 1.135203 26.896469 26.044896 10.447747 -3.419713 0.000022 0.000002 0.000000 0.000001 0.000000 30.190286 -9.131602 4.237624 29.633059 -3.205764 9.024300 -33.502843 -18.550316 15.643495 -43.602053 0.000005 -0.000011 0.000000 0.000003 0.000001 
1.422716 61.371277 1.836666 17.528758 -4.820143 -3.964789 10.317460 15.680128 -10.414029 2.839126 4.529219 -1.212409 3.675679 4.695225 -1.803244 -1.170504 -3.132994 5.440337 -7.558801 -11.913493 12.053990 -0.000001 0.000000 0.000000 1.163339 -0.553020 -13.946140 -9.615720 30.701997 -41.065413 0.000003 -8.861025 0.000001 14.066096 -18.451917 21.622325 -6.137978 -7.173533 3.030290 8.116720 27.872585 1.165694 -10.002218 -13.934173 7.814981 -0.000001 0.000003 -0.000002 0.426666 4.657282 -31.040556 0.688795 2.757980 -28.039972 0.645227 2.674711 -27.121013 -0.000001 0.000002 -0.000002 0.110034 3.724496 -24.324877 0.442724 2.235980 -22.396511 0.480709 2.325924 -23.350731 -0.000002 0.000002 0.000003 -1.177870 -0.697369 -17.664087 0.341872 1.973786 -19.651544 0.384804 2.090055 -20.862364 -0.000003 0.000001 0.000011 -1.794327 -5.909805 -12.362496 0.209269 1.553367 -15.344718 0.215819 1.577037 -15.584485 -0.000002 0.000001 0.000001 2.583913 11.394197 -6.566187 -31.763566 74.913351 6.392300 -0.000015 97.006827 0.000050 23.891303 18.477671 -12.141939 -15.516504 26.866307 3.336169 9.819221 -45.351964 -5.426021 -7.061576 3.188471 -14.126758 -0.000001 -0.000002 0.000002 0.451261 -4.532638 12.648526 0.155814 -1.195821 14.847055 0.156294 -1.197644 14.870350 -0.000001 -0.000001 0.000001 1.398461 -5.838503 30.474562 0.743250 -2.525953 32.788251 0.831428 -2.657731 34.737977 -0.000003 0.000000 -0.000004 2.199813 -6.507651 40.565699 1.099133 -3.006861 40.151513 1.196317 -3.118268 41.970385 0.000002 -0.000002 -0.000003 2.840466 -7.507298 50.181147 1.586927 -3.503520 48.726146 1.573561 -3.491790 48.507235 -0.000000 0.000001 0.000002 -94.137110 -1.770437 1.627662 43.231696 11.849433 1.259458 27.387877 26.112730 9.686185 -3.419711 -0.000012 -0.000006 0.000000 0.000002 0.000000 29.462103 -7.230574 6.010631 28.528402 -3.353045 8.505422 -33.753268 -19.380139 14.274348 -42.382372 0.000006 -0.000001 -0.000000 -0.000001 -0.000001 
0.145239 62.392906 3.250166 19.674191 -2.047187 -2.692369 9.165684 13.940363 -10.544200 2.753272 4.445584 -2.396437 4.428125 4.456424 -3.498255 -0.921601 -3.765837 6.106566 -6.832731 -14.853425 14.583251 0.000001 -0.000000 -0.000000 1.057464 -0.842364 -14.189237 -10.566311 29.351416 -40.290343 0.000000 -8.097178 -0.000003 13.308465 -18.000158 22.739040 -6.488191 -7.857725 3.082347 8.147313 28.140948 1.233552 -9.984458 -13.850520 7.890639 -0.000001 0.000002 -0.000001 0.610920 5.001347 -28.711093 0.592444 2.569143 -25.967215 0.509283 2.391007 -24.045269 0.000001 0.000001 -0.000007 0.185804 3.812962 -22.323088 0.380288 2.078151 -20.737936 0.373694 2.060674 -20.555480 -0.000003 -0.000001 0.000003 -1.085472 -0.725093 -16.552584 0.293711 1.833396 -18.201469 0.302939 1.861198 -18.487797 -0.000002 -0.000002 0.000004 -1.721633 -5.757001 -12.110265 0.180559 1.444656 -14.246915 0.180961 1.446260 -14.262946 -0.000002 0.000002 -0.000005 2.574049 12.202037 -5.704915 -32.162989 75.229179 7.283616 -0.000239 99.832893 0.000242 26.714176 16.832709 -11.382411 -15.773612 26.820966 2.633475 9.791606 -45.082261 -5.365726 -7.071831 3.275217 -14.057282 -0.000002 -0.000000 -0.000002 0.373739 -4.266720 11.451119 0.142650 -1.145007 14.202512 0.144937 -1.154006 14.316534 -0.000001 -0.000001 0.000001 1.228403 -5.652185 28.089839 0.673614 -2.414522 31.172539 0.754661 -2.543559 33.046166 -0.000003 0.000001 -0.000006 2.047512 -6.472116 37.237321 0.984351 -2.865452 37.911016 1.068494 -2.970219 39.564106 -0.000001 0.000002 -0.000005 2.837014 -7.704804 46.186463 1.412414 -3.342580 45.803792 1.386404 -3.317107 45.355946 -0.000001 -0.000000 0.000002 -93.609266 -0.835393 -0.141337 41.414620 10.838510 1.361986 27.514437 26.234833 8.127356 -3.419708 0.000010 0.000004 0.000000 -0.000001 -0.000000 24.839513 -5.680110 7.553343 29.608552 -3.467271 8.827840 -25.105346 -19.821766 13.520289 -45.633266 -0.078731 2.511696 0.000000 -0.000000 -0.000000 
-1.417624 63.232903 5.161648 22.340482 -0.193532 -2.849489 7.811464 12.158299 -10.503371 2.556842 4.529219 -2.990925 5.057323 4.403835 -4.536095 -0.330551 -3.902404 5.314869 -5.786564 -17.461601 17.376362 -0.000002 -0.000000 -0.000000 0.755489 -2.376201 -17.019165 -12.416833 27.572126 -36.927739 -0.000007 -8.439686 0.000008 12.863031 -17.775146 24.438388 -6.860385 -8.570345 3.138693 8.177848 28.409325 1.301348 -9.966739 -13.766833 7.966263 -0.000001 0.000002 -0.000002 0.770661 5.387302 -26.164061 0.494960 2.358649 -23.699460 0.378709 2.073969 -20.694408 -0.000001 0.000001 0.000001 0.251421 3.911881 -20.134780 0.317204 1.903302 -18.921984 0.272044 1.766179 -17.511673 -0.000004 -0.000000 0.000002 -0.987851 -0.760505 -15.331423 0.245169 1.678666 -16.617598 0.224732 1.608616 -15.904975 0.000001 -0.000002 0.000004 -1.647184 -5.606465 -11.835619 0.151906 1.326793 -13.062402 0.146730 1.304292 -12.836961 -0.000003 0.000003 -0.000003 2.813601 14.411423 -5.518574 -34.851341 72.472460 9.697753 -0.000193 102.601387 0.000237 26.759049 16.452220 -9.903076 -16.066000 26.799326 1.879459 9.764012 -44.812547 -5.305334 -7.079649 3.362341 -13.987950 -0.000002 -0.000001 0.000002 0.311550 -3.997817 10.254354 0.130320 -1.095137 13.571439 0.135272 -1.115413 13.828181 -0.000002 0.000000 0.000001 1.067325 -5.457648 25.674696 0.607466 -2.301717 29.564901 0.680342 -2.425613 31.332096 0.000001 -0.000001 -0.000001 1.890074 -6.435148 33.853576 0.874248 -2.718345 35.650647 0.946262 -2.815972 37.142838 0.000002 -0.000001 -0.000002 2.797905 -7.935233 42.098274 1.243698 -3.170078 42.834387 1.205655 -3.128619 42.142086 0.000002 0.000002 0.000004 -94.684618 -1.004658 -0.615884 41.549670 9.159760 1.433012 26.886099 26.346295 6.239947 -3.419707 -0.000001 0.000006 -0.000000 -0.000003 0.000000 18.105508 -5.912542 8.106018 29.704879 -3.319898 9.029611 -7.140602 -15.565929 16.634576 -62.397268 -1.269497 4.926775 -0.000000 -0.000000 -0.000000 
-3.329251 63.494522 6.497658 25.568347 0.447500 -3.141840 6.499220 10.408334 -10.634219 2.439586 4.911585 -3.422967 5.786857 4.611016 -5.419922 -0.250471 -4.017458 4.985104 -5.316998 -18.769935 18.617147 -0.000000 0.000000 -0.000000 0.532799 -3.231793 -19.747383 -14.311478 25.517846 -33.111108 0.000004 -9.542357 0.000004 14.005206 -17.982679 26.861432 -7.249174 -9.301886 3.195333 8.208369 28.677673 1.369056 -9.949046 -13.683179 8.041864 -0.000003 0.000006 -0.000002 0.893884 5.809006 -23.466382 0.400852 2.131647 -21.297930 0.261177 1.731322 -17.155174 -0.000001 -0.000001 -0.000004 0.302590 4.021092 -17.817819 0.256447 1.715968 -16.998159 0.181837 1.449690 -14.297444 -0.000000 -0.000004 0.000003 -0.886939 -0.798910 -14.034604 0.198501 1.513574 -14.942159 0.154624 1.338442 -13.179233 -0.000002 -0.000001 0.000009 -1.572113 -5.457175 -11.545628 0.124445 1.202385 -11.818509 0.114607 1.154290 -11.339308 -0.000001 0.000001 -0.000001 2.786685 15.922838 -3.831289 -33.015666 70.832197 7.872284 -0.000042 105.647522 0.000091 28.359376 15.963783 -10.482428 -16.383103 26.796287 1.086201 9.736494 -44.542833 -5.244806 -7.087526 3.449477 -13.918624 0.000000 -0.000002 0.000003 0.259008 -3.727414 9.058001 0.118674 -1.045754 12.948660 0.126679 -1.079953 13.380041 0.000001 0.000000 0.000001 0.916034 -5.255345 23.241476 0.544700 -2.187463 27.962282 0.609047 -2.304518 29.604492 0.000001 0.000002 -0.000008 1.726981 -6.395302 30.435798 0.769473 -2.566164 33.378274 0.830264 -2.656028 34.712640 -0.000004 -0.000000 0.000000 2.715369 -8.192057 37.950379 1.082658 -2.987274 39.836515 1.033847 -2.927811 38.890336 0.000001 0.000001 -0.000001 -97.226172 -2.078726 0.202440 42.047399 7.807548 1.485231 27.049354 26.373596 3.801151 -3.419713 0.000007 0.000003 -0.000000 -0.000003 0.000000 11.840785 -9.447009 6.949449 25.757900 -3.194091 8.357507 15.126815 -1.489423 22.195594 -85.081030 1.270687 -0.516820 0.000000 -0.000001 -0.000000 
-5.677840 62.766426 6.542946 28.708931 -0.474567 -2.831234 5.321184 8.999201 -10.753875 2.551125 5.389975 -3.843771 6.735994 4.908847 -6.143321 -0.819815 -4.161694 4.549817 -5.481802 -19.748348 18.423880 -0.000001 -0.000000 0.000000 0.409890 -3.256747 -23.456763 -16.587080 23.010513 -28.093797 -0.000004 -11.285375 -0.000001 15.233415 -18.613019 28.890112 -7.650586 -10.045331 3.249340 8.238864 28.946045 1.436658 -9.931387 -13.599510 8.117443 -0.000000 0.000004 -0.000001 0.972109 6.259803 -20.666945 0.313417 1.892229 -18.807582 0.161983 1.369488 -13.490769 0.000001 0.000004 -0.000010 0.336150 4.139606 -15.414649 0.200103 1.519555 -15.002645 0.107287 1.117175 -10.969954 -0.000003 0.000001 0.000007 -0.784313 -0.837058 -12.687120 0.155251 1.341125 -13.206003 0.095688 1.055614 -10.358501 -0.000001 0.000001 0.000004 -1.497251 -5.308421 -11.245463 0.098964 1.073402 -10.535147 0.085567 0.998666 -9.793927 0.000001 0.000002 -0.000003 2.885555 17.700323 -3.978960 -28.063470 68.847118 4.583066 -0.000036 109.363165 0.000068 32.298790 9.767877 -13.555543 -16.717554 26.808219 0.262191 9.709038 -44.273139 -5.184161 -7.095390 3.536599 -13.849295 -0.000001 -0.000000 -0.000002 0.216381 -3.455663 7.862238 0.107654 -0.996607 12.330171 0.118755 -1.046073 12.952769 -0.000002 0.000000 -0.000001 0.775223 -5.045909 20.799541 0.485230 -2.071670 26.362389 0.541172 -2.180821 27.869943 -0.000005 -0.000003 -0.000007 1.558056 -6.351127 27.000240 0.670565 -2.409488 31.099924 0.720938 -2.490979 32.278111 -0.000004 -0.000001 -0.000003 2.583784 -8.467803 33.768544 0.930683 -2.795286 36.824357 0.872766 -2.716280 35.619437 -0.000003 -0.000001 0.000004 -100.941931 -4.304792 2.520682 42.667440 7.426898 1.561835 28.872699 26.126853 0.486393 -3.419723 -0.000009 -0.000010 -0.000000 -0.000001 0.000000 7.266516 -14.589235 3.494722 27.371438 1.041102 8.147494 22.509399 8.516289 33.352691 -84.887783 14.986350 -8.456384 0.000000 -0.000004 0.000000 
